<?xml version="1.0" encoding="UTF-8" standalone="no"?>
<!DOCTYPE svg PUBLIC "-//W3C//DTD SVG 1.1//EN"
 "http://www.w3.org/Graphics/SVG/1.1/DTD/svg11.dtd">
<!-- Generated by graphviz version 2.38.0 (20140413.2041)
 -->
<!-- Title: %3 Pages: 1 -->
<svg width="435pt" height="310pt"
 viewBox="0.00 0.00 435.00 310.00" xmlns="http://www.w3.org/2000/svg" xmlns:xlink="http://www.w3.org/1999/xlink">
<g id="graph0" class="graph" transform="scale(1 1) rotate(0) translate(4 306)">
<title>%3</title>
<polygon fill="white" stroke="none" points="-4,4 -4,-306 431,-306 431,4 -4,4"/>
<g id="clust1" class="cluster"><title>cluster_project</title>
<path fill="#dadada" stroke="#c0c0c0" stroke-width="2" d="M20,-8C20,-8 407,-8 407,-8 413,-8 419,-14 419,-20 419,-20 419,-282 419,-282 419,-288 413,-294 407,-294 407,-294 20,-294 20,-294 14,-294 8,-288 8,-282 8,-282 8,-20 8,-20 8,-14 14,-8 20,-8"/>
<text text-anchor="middle" x="42.5" y="-278.8" font-family="Helvetica,sans-Serif" font-size="14.00">project</text>
</g>
<!-- project.contquery.w_data -->
<g id="node1" class="node"><title>project.contquery.w_data</title>
<polygon fill="#c8f0ff" stroke="#58a0d3" stroke-width="2" points="161.5,-262.5 27.5,-262.5 27.5,-133.5 161.5,-133.5 161.5,-262.5"/>
<text text-anchor="start" x="71.5" y="-238.8" font-family="Helvetica,sans-Serif" font-size="14.00">w_data</text>
<text text-anchor="start" x="90.5" y="-223.8" font-family="Helvetica,sans-Serif" font-size="14.00"> </text>
<text text-anchor="start" x="52.5" y="-209.8" font-family="Helvetica,sans-Serif" font-size="14.00">🔑</text>
<text text-anchor="start" x="60.5" y="-209.8" font-family="Helvetica,sans-Serif" font-size="14.00" fill="#c49810">id : int64</text>
<text text-anchor="start" x="45.5" y="-193.8" font-family="Helvetica,sans-Serif" font-size="14.00" fill="#808080">time : double</text>
<text text-anchor="start" x="56.5" y="-178.8" font-family="Helvetica,sans-Serif" font-size="14.00" fill="#808080">x : double</text>
<text text-anchor="start" x="56.5" y="-163.8" font-family="Helvetica,sans-Serif" font-size="14.00" fill="#808080">y : double</text>
<text text-anchor="start" x="56.5" y="-148.8" font-family="Helvetica,sans-Serif" font-size="14.00" fill="#808080">z : double</text>
</g>
<!-- project.contquery.w_calculate -->
<g id="node2" class="node"><title>project.contquery.w_calculate</title>
<polygon fill="#c8f0ff" stroke="#58a0d3" stroke-width="2" points="411,-170 262,-170 262,-56 411,-56 411,-170"/>
<text text-anchor="start" x="295.5" y="-146.8" font-family="Helvetica,sans-Serif" font-size="14.00">w_calculate</text>
<text text-anchor="start" x="333" y="-131.8" font-family="Helvetica,sans-Serif" font-size="14.00"> </text>
<text text-anchor="start" x="295" y="-117.8" font-family="Helvetica,sans-Serif" font-size="14.00">🔑</text>
<text text-anchor="start" x="303" y="-117.8" font-family="Helvetica,sans-Serif" font-size="14.00" fill="#c49810">id : int64</text>
<text text-anchor="start" x="299" y="-101.8" font-family="Helvetica,sans-Serif" font-size="14.00" fill="#808080">x : double</text>
<text text-anchor="start" x="280.5" y="-86.8" font-family="Helvetica,sans-Serif" font-size="14.00" fill="#808080">mean_x : double</text>
<text text-anchor="start" x="295.5" y="-71.8" font-family="Helvetica,sans-Serif" font-size="14.00" fill="#808080">n_x : int64</text>
</g>
<!-- project.contquery.w_data&#45;&gt;project.contquery.w_calculate -->
<g id="edge1" class="edge"><title>project.contquery.w_data&#45;&gt;project.contquery.w_calculate</title>
<path fill="none" stroke="black" d="M161.716,-174.548C189.761,-164.616 222.746,-152.934 252.401,-142.431"/>
<polygon fill="black" stroke="black" points="253.644,-145.704 261.902,-139.066 251.307,-139.105 253.644,-145.704"/>
<text text-anchor="middle" x="217.5" y="-166.8" font-family="Times,serif" font-style="italic" font-size="14.00">data</text>
</g>
<!-- project.contquery.w_request -->
<g id="node3" class="node"><title>project.contquery.w_request</title>
<polygon fill="#c8f0ff" stroke="#58a0d3" stroke-width="2" points="173,-115.5 16,-115.5 16,-16.5 173,-16.5 173,-115.5"/>
<text text-anchor="start" x="61" y="-91.8" font-family="Helvetica,sans-Serif" font-size="14.00">w_request</text>
<text text-anchor="start" x="91" y="-76.8" font-family="Helvetica,sans-Serif" font-size="14.00"> </text>
<text text-anchor="start" x="38" y="-62.8" font-family="Helvetica,sans-Serif" font-size="14.00">🔑</text>
<text text-anchor="start" x="46" y="-62.8" font-family="Helvetica,sans-Serif" font-size="14.00" fill="#c49810">req_id : int64</text>
<text text-anchor="start" x="34.5" y="-46.8" font-family="Helvetica,sans-Serif" font-size="14.00" fill="#808080">req_key : string</text>
<text text-anchor="start" x="34.5" y="-31.8" font-family="Helvetica,sans-Serif" font-size="14.00" fill="#808080">req_val : string</text>
</g>
<!-- project.contquery.w_request&#45;&gt;project.contquery.w_calculate -->
<g id="edge2" class="edge"><title>project.contquery.w_request&#45;&gt;project.contquery.w_calculate</title>
<path fill="none" stroke="black" d="M173.09,-81.1946C198.238,-86.1194 226.237,-91.6027 251.808,-96.6104"/>
<polygon fill="black" stroke="black" points="251.365,-100.09 261.851,-98.577 252.71,-93.2204 251.365,-100.09"/>
<text text-anchor="middle" x="217.5" y="-98.8" font-family="Times,serif" font-style="italic" font-size="14.00">request</text>
</g>
</g>
</svg>
