<?xml version="1.0" encoding="UTF-8" standalone="no"?>
<!DOCTYPE svg PUBLIC "-//W3C//DTD SVG 1.1//EN"
 "http://www.w3.org/Graphics/SVG/1.1/DTD/svg11.dtd">
<!-- Generated by graphviz version 2.38.0 (20140413.2041)
 -->
<!-- Title: %3 Pages: 1 -->
<svg width="331pt" height="160pt"
 viewBox="0.00 0.00 331.00 160.00" xmlns="http://www.w3.org/2000/svg" xmlns:xlink="http://www.w3.org/1999/xlink">
<g id="graph0" class="graph" transform="scale(1 1) rotate(0) translate(4 156)">
<title>%3</title>
<polygon fill="white" stroke="none" points="-4,4 -4,-156 327,-156 327,4 -4,4"/>
<g id="clust1" class="cluster"><title>cluster_project</title>
<path fill="#dadada" stroke="#c0c0c0" stroke-width="2" d="M20,-8C20,-8 303,-8 303,-8 309,-8 315,-14 315,-20 315,-20 315,-132 315,-132 315,-138 309,-144 303,-144 303,-144 20,-144 20,-144 14,-144 8,-138 8,-132 8,-132 8,-20 8,-20 8,-14 14,-8 20,-8"/>
<text text-anchor="middle" x="38" y="-128.8" font-family="Helvetica,sans-Serif" font-size="14.00">project</text>
</g>
<!-- project.contquery.w_data -->
<g id="node1" class="node"><title>project.contquery.w_data</title>
<polygon fill="#c8f0ff" stroke="#58a0d3" stroke-width="2" points="108.5,-112.5 26.5,-112.5 26.5,-73.5 108.5,-73.5 108.5,-112.5"/>
<text text-anchor="middle" x="67.5" y="-89.3" font-family="Helvetica,sans-Serif" font-size="14.00">w_data</text>
</g>
<!-- project.contquery.w_calculate -->
<g id="node2" class="node"><title>project.contquery.w_calculate</title>
<polygon fill="#c8f0ff" stroke="#58a0d3" stroke-width="2" points="307,-79.5 197,-79.5 197,-40.5 307,-40.5 307,-79.5"/>
<text text-anchor="middle" x="252" y="-56.3" font-family="Helvetica,sans-Serif" font-size="14.00">w_calculate</text>
</g>
<!-- project.contquery.w_data&#45;&gt;project.contquery.w_calculate -->
<g id="edge1" class="edge"><title>project.contquery.w_data&#45;&gt;project.contquery.w_calculate</title>
<path fill="none" stroke="black" d="M108.55,-85.758C131.43,-81.6209 160.659,-76.3357 186.679,-71.6307"/>
<polygon fill="black" stroke="black" points="187.631,-75.0153 196.849,-69.7917 186.386,-68.127 187.631,-75.0153"/>
<text text-anchor="middle" x="158" y="-83.8" font-family="Times,serif" font-style="italic" font-size="14.00">data</text>
</g>
<!-- project.contquery.w_request -->
<g id="node3" class="node"><title>project.contquery.w_request</title>
<polygon fill="#c8f0ff" stroke="#58a0d3" stroke-width="2" points="119,-55.5 16,-55.5 16,-16.5 119,-16.5 119,-55.5"/>
<text text-anchor="middle" x="67.5" y="-32.3" font-family="Helvetica,sans-Serif" font-size="14.00">w_request</text>
</g>
<!-- project.contquery.w_request&#45;&gt;project.contquery.w_calculate -->
<g id="edge2" class="edge"><title>project.contquery.w_request&#45;&gt;project.contquery.w_calculate</title>
<path fill="none" stroke="black" d="M119.336,-42.6853C140.281,-45.4397 164.786,-48.6622 186.938,-51.5754"/>
<polygon fill="black" stroke="black" points="186.558,-55.0555 196.929,-52.8893 187.471,-48.1152 186.558,-55.0555"/>
<text text-anchor="middle" x="158" y="-54.8" font-family="Times,serif" font-style="italic" font-size="14.00">request</text>
</g>
</g>
</svg>
