<?xml version="1.0" encoding="UTF-8" standalone="no"?>
<!DOCTYPE svg PUBLIC "-//W3C//DTD SVG 1.1//EN"
 "http://www.w3.org/Graphics/SVG/1.1/DTD/svg11.dtd">
<!-- Generated by graphviz version 2.40.1 (20161225.0304)
 -->
<!-- Title: %3 Pages: 1 -->
<svg width="73pt" height="44pt"
 viewBox="0.00 0.00 73.02 44.00" xmlns="http://www.w3.org/2000/svg" xmlns:xlink="http://www.w3.org/1999/xlink">
<g id="graph0" class="graph" transform="scale(1 1) rotate(0) translate(4 40)">
<title>%3</title>
<polygon fill="#ffffff" stroke="transparent" points="-4,4 -4,-40 69.0205,-40 69.0205,4 -4,4"/>
<!-- kmeans -->
<g id="node1" class="node">
<title>kmeans</title>
<path fill="#dadada" stroke="#c0c0c0" stroke-width="2" d="M53.0308,-36C53.0308,-36 11.9897,-36 11.9897,-36 5.9897,-36 -.0103,-30 -.0103,-24 -.0103,-24 -.0103,-12 -.0103,-12 -.0103,-6 5.9897,0 11.9897,0 11.9897,0 53.0308,0 53.0308,0 59.0308,0 65.0308,-6 65.0308,-12 65.0308,-12 65.0308,-24 65.0308,-24 65.0308,-30 59.0308,-36 53.0308,-36"/>
<text text-anchor="middle" x="32.5103" y="-13.8" font-family="Helvetica,sans-Serif" font-size="14.00" fill="#000000">kmeans</text>
</g>
</g>
</svg>
