<?xml version="1.0" encoding="UTF-8" standalone="no"?>
<!DOCTYPE svg PUBLIC "-//W3C//DTD SVG 1.1//EN"
 "http://www.w3.org/Graphics/SVG/1.1/DTD/svg11.dtd">
<!-- Generated by graphviz version 2.38.0 (20140413.2041)
 -->
<!-- Title: %3 Pages: 1 -->
<svg width="74pt" height="44pt"
 viewBox="0.00 0.00 74.00 44.00" xmlns="http://www.w3.org/2000/svg" xmlns:xlink="http://www.w3.org/1999/xlink">
<g id="graph0" class="graph" transform="scale(1 1) rotate(0) translate(4 40)">
<title>%3</title>
<polygon fill="white" stroke="none" points="-4,4 -4,-40 70,-40 70,4 -4,4"/>
<!-- kmeans -->
<g id="node1" class="node"><title>kmeans</title>
<path fill="#dadada" stroke="#c0c0c0" stroke-width="2" d="M54,-36C54,-36 12,-36 12,-36 6,-36 0,-30 0,-24 0,-24 0,-12 0,-12 0,-6 6,-0 12,-0 12,-0 54,-0 54,-0 60,-0 66,-6 66,-12 66,-12 66,-24 66,-24 66,-30 60,-36 54,-36"/>
<text text-anchor="middle" x="33" y="-14.3" font-family="Helvetica,sans-Serif" font-size="14.00">kmeans</text>
</g>
</g>
</svg>
