<?xml version="1.0" encoding="UTF-8" standalone="no"?>
<!DOCTYPE svg PUBLIC "-//W3C//DTD SVG 1.1//EN"
 "http://www.w3.org/Graphics/SVG/1.1/DTD/svg11.dtd">
<!-- Generated by graphviz version 2.26.0 (20091210.2329)
 -->
<!-- Title: _anonymous_0 Pages: 1 -->
<svg width="116pt" height="103pt"
 viewBox="0.00 0.00 116.00 103.00" xmlns="http://www.w3.org/2000/svg" xmlns:xlink="http://www.w3.org/1999/xlink">
<g id="graph1" class="graph" transform="scale(1 1) rotate(0) translate(4 99)">
<title>_anonymous_0</title>
<polygon fill="white" stroke="white" points="-4,5 -4,-99 113,-99 113,5 -4,5"/>
<g id="graph2" class="cluster"><title>cluster_kmeans</title>
<polygon fill="#dadada" stroke="#dadada" stroke-width="2" points="20,-8 88,-8 100,-20 100,-75 88,-87 20,-87 8,-75 8,-20 20,-8"/>
<path fill="#dadada" stroke="#dadada" stroke-width="2" d="M88,-8C94,-8 100,-14 100,-20"/>
<path fill="#dadada" stroke="#dadada" stroke-width="2" d="M100,-75C100,-81 94,-87 88,-87"/>
<path fill="#dadada" stroke="#dadada" stroke-width="2" d="M20,-87C14,-87 8,-81 8,-75"/>
<path fill="#dadada" stroke="#dadada" stroke-width="2" d="M8,-20C8,-14 14,-8 20,-8"/>
<polyline fill="none" stroke="#c0c0c0" stroke-width="2" points="20,-8 88,-8 "/>
<path fill="none" stroke="#c0c0c0" stroke-width="2" d="M88,-8C94,-8 100,-14 100,-20"/>
<polyline fill="none" stroke="#c0c0c0" stroke-width="2" points="100,-20 100,-75 "/>
<path fill="none" stroke="#c0c0c0" stroke-width="2" d="M100,-75C100,-81 94,-87 88,-87"/>
<polyline fill="none" stroke="#c0c0c0" stroke-width="2" points="88,-87 20,-87 "/>
<path fill="none" stroke="#c0c0c0" stroke-width="2" d="M20,-87C14,-87 8,-81 8,-75"/>
<polyline fill="none" stroke="#c0c0c0" stroke-width="2" points="8,-75 8,-20 "/>
<path fill="none" stroke="#c0c0c0" stroke-width="2" d="M8,-20C8,-14 14,-8 20,-8"/>
<text text-anchor="middle" x="40.5" y="-70.4" font-family="Helvetica,sans-Serif" font-size="14.00">kmeans</text>
</g>
<!-- contquery -->
<g id="node3" class="node"><title>contquery</title>
<polygon fill="#f0f0f0" stroke="#f0f0f0" points="80,-52 28,-52 16,-40 16,-28 28,-16 80,-16 92,-28 92,-40 80,-52"/>
<path fill="#f0f0f0" stroke="#f0f0f0" d="M28,-52C22,-52 16,-46 16,-40"/>
<path fill="#f0f0f0" stroke="#f0f0f0" d="M16,-28C16,-22 22,-16 28,-16"/>
<path fill="#f0f0f0" stroke="#f0f0f0" d="M80,-16C86,-16 92,-22 92,-28"/>
<path fill="#f0f0f0" stroke="#f0f0f0" d="M92,-40C92,-46 86,-52 80,-52"/>
<polyline fill="none" stroke="#a0a0a0" points="80,-52 28,-52 "/>
<path fill="none" stroke="#a0a0a0" d="M28,-52C22,-52 16,-46 16,-40"/>
<polyline fill="none" stroke="#a0a0a0" points="16,-40 16,-28 "/>
<path fill="none" stroke="#a0a0a0" d="M16,-28C16,-22 22,-16 28,-16"/>
<polyline fill="none" stroke="#a0a0a0" points="28,-16 80,-16 "/>
<path fill="none" stroke="#a0a0a0" d="M80,-16C86,-16 92,-22 92,-28"/>
<polyline fill="none" stroke="#a0a0a0" points="92,-28 92,-40 "/>
<path fill="none" stroke="#a0a0a0" d="M92,-40C92,-46 86,-52 80,-52"/>
<text text-anchor="middle" x="54" y="-30.9" font-family="Helvetica,sans-Serif" font-size="14.00">contquery</text>
</g>
</g>
</svg>
