<?xml version="1.0" encoding="UTF-8" standalone="no"?>
<!DOCTYPE svg PUBLIC "-//W3C//DTD SVG 1.1//EN"
 "http://www.w3.org/Graphics/SVG/1.1/DTD/svg11.dtd">
<!-- Generated by graphviz version 2.38.0 (20140413.2041)
 -->
<!-- Title: %3 Pages: 1 -->
<svg width="393pt" height="310pt"
 viewBox="0.00 0.00 393.00 310.00" xmlns="http://www.w3.org/2000/svg" xmlns:xlink="http://www.w3.org/1999/xlink">
<g id="graph0" class="graph" transform="scale(1 1) rotate(0) translate(4 306)">
<title>%3</title>
<polygon fill="white" stroke="none" points="-4,4 -4,-306 389,-306 389,4 -4,4"/>
<g id="clust1" class="cluster"><title>cluster_project</title>
<path fill="#dadada" stroke="#c0c0c0" stroke-width="2" d="M20,-8C20,-8 365,-8 365,-8 371,-8 377,-14 377,-20 377,-20 377,-282 377,-282 377,-288 371,-294 365,-294 365,-294 20,-294 20,-294 14,-294 8,-288 8,-282 8,-282 8,-20 8,-20 8,-14 14,-8 20,-8"/>
<text text-anchor="middle" x="38" y="-278.8" font-family="Helvetica,sans-Serif" font-size="14.00">project</text>
</g>
<!-- project.contquery.w_data -->
<g id="node1" class="node"><title>project.contquery.w_data</title>
<polygon fill="#c8f0ff" stroke="#58a0d3" stroke-width="2" points="141.5,-262.5 23.5,-262.5 23.5,-133.5 141.5,-133.5 141.5,-262.5"/>
<text text-anchor="start" x="59.5" y="-238.8" font-family="Helvetica,sans-Serif" font-size="14.00">w_data</text>
<text text-anchor="start" x="80.5" y="-223.8" font-family="Helvetica,sans-Serif" font-size="14.00"> </text>
<text text-anchor="start" x="49" y="-209.8" font-family="Helvetica,sans-Serif" font-size="14.00">🔑</text>
<text text-anchor="start" x="62" y="-209.8" font-family="Helvetica,sans-Serif" font-size="14.00" fill="#c49810">id : int64</text>
<text text-anchor="start" x="41.5" y="-193.8" font-family="Helvetica,sans-Serif" font-size="14.00" fill="#808080">time : double</text>
<text text-anchor="start" x="51.5" y="-178.8" font-family="Helvetica,sans-Serif" font-size="14.00" fill="#808080">x : double</text>
<text text-anchor="start" x="51.5" y="-163.8" font-family="Helvetica,sans-Serif" font-size="14.00" fill="#808080">y : double</text>
<text text-anchor="start" x="51.5" y="-148.8" font-family="Helvetica,sans-Serif" font-size="14.00" fill="#808080">z : double</text>
</g>
<!-- project.contquery.w_calculate -->
<g id="node2" class="node"><title>project.contquery.w_calculate</title>
<polygon fill="#c8f0ff" stroke="#58a0d3" stroke-width="2" points="369,-170 227,-170 227,-56 369,-56 369,-170"/>
<text text-anchor="start" x="261" y="-146.8" font-family="Helvetica,sans-Serif" font-size="14.00">w_calculate</text>
<text text-anchor="start" x="296" y="-131.8" font-family="Helvetica,sans-Serif" font-size="14.00"> </text>
<text text-anchor="start" x="264.5" y="-117.8" font-family="Helvetica,sans-Serif" font-size="14.00">🔑</text>
<text text-anchor="start" x="277.5" y="-117.8" font-family="Helvetica,sans-Serif" font-size="14.00" fill="#c49810">id : int64</text>
<text text-anchor="start" x="267" y="-101.8" font-family="Helvetica,sans-Serif" font-size="14.00" fill="#808080">x : double</text>
<text text-anchor="start" x="245" y="-86.8" font-family="Helvetica,sans-Serif" font-size="14.00" fill="#808080">mean_x : double</text>
<text text-anchor="start" x="265.5" y="-71.8" font-family="Helvetica,sans-Serif" font-size="14.00" fill="#808080">n_x : int64</text>
</g>
<!-- project.contquery.w_data&#45;&gt;project.contquery.w_calculate -->
<g id="edge1" class="edge"><title>project.contquery.w_data&#45;&gt;project.contquery.w_calculate</title>
<path fill="none" stroke="black" d="M141.558,-174.886C164.88,-165.601 192.147,-154.745 217.276,-144.74"/>
<polygon fill="black" stroke="black" points="218.794,-147.903 226.79,-140.952 216.205,-141.4 218.794,-147.903"/>
<text text-anchor="middle" x="188" y="-166.8" font-family="Times,serif" font-style="italic" font-size="14.00">data</text>
</g>
<!-- project.contquery.w_request -->
<g id="node3" class="node"><title>project.contquery.w_request</title>
<polygon fill="#c8f0ff" stroke="#58a0d3" stroke-width="2" points="149,-115.5 16,-115.5 16,-16.5 149,-16.5 149,-115.5"/>
<text text-anchor="start" x="49.5" y="-91.8" font-family="Helvetica,sans-Serif" font-size="14.00">w_request</text>
<text text-anchor="start" x="81" y="-76.8" font-family="Helvetica,sans-Serif" font-size="14.00"> </text>
<text text-anchor="start" x="35" y="-62.8" font-family="Helvetica,sans-Serif" font-size="14.00">🔑</text>
<text text-anchor="start" x="48" y="-62.8" font-family="Helvetica,sans-Serif" font-size="14.00" fill="#c49810">req_id : int64</text>
<text text-anchor="start" x="34.5" y="-46.8" font-family="Helvetica,sans-Serif" font-size="14.00" fill="#808080">req_key : string</text>
<text text-anchor="start" x="36.5" y="-31.8" font-family="Helvetica,sans-Serif" font-size="14.00" fill="#808080">req_val : string</text>
</g>
<!-- project.contquery.w_request&#45;&gt;project.contquery.w_calculate -->
<g id="edge2" class="edge"><title>project.contquery.w_request&#45;&gt;project.contquery.w_calculate</title>
<path fill="none" stroke="black" d="M149.008,-80.421C170.47,-85.1456 194.56,-90.4488 216.971,-95.3823"/>
<polygon fill="black" stroke="black" points="216.277,-98.8134 226.796,-97.5452 217.782,-91.9771 216.277,-98.8134"/>
<text text-anchor="middle" x="188" y="-95.8" font-family="Times,serif" font-style="italic" font-size="14.00">request</text>
</g>
</g>
</svg>
