<?xml version="1.0" encoding="UTF-8" standalone="no"?>
<!DOCTYPE svg PUBLIC "-//W3C//DTD SVG 1.1//EN"
 "http://www.w3.org/Graphics/SVG/1.1/DTD/svg11.dtd">
<!-- Generated by graphviz version 2.38.0 (20140413.2041)
 -->
<!-- Title: %3 Pages: 1 -->
<svg width="386pt" height="310pt"
 viewBox="0.00 0.00 386.00 310.00" xmlns="http://www.w3.org/2000/svg" xmlns:xlink="http://www.w3.org/1999/xlink">
<g id="graph0" class="graph" transform="scale(1 1) rotate(0) translate(4 306)">
<title>%3</title>
<polygon fill="white" stroke="none" points="-4,4 -4,-306 382,-306 382,4 -4,4"/>
<g id="clust1" class="cluster"><title>cluster_project</title>
<path fill="#dadada" stroke="#c0c0c0" stroke-width="2" d="M20,-8C20,-8 358,-8 358,-8 364,-8 370,-14 370,-20 370,-20 370,-282 370,-282 370,-288 364,-294 358,-294 358,-294 20,-294 20,-294 14,-294 8,-288 8,-282 8,-282 8,-20 8,-20 8,-14 14,-8 20,-8"/>
<text text-anchor="middle" x="36.5" y="-278.8" font-family="Helvetica,sans-Serif" font-size="14.00">project</text>
</g>
<!-- project.contquery.w_data -->
<g id="node1" class="node"><title>project.contquery.w_data</title>
<polygon fill="#c8f0ff" stroke="#58a0d3" stroke-width="2" points="140,-262.5 25,-262.5 25,-133.5 140,-133.5 140,-262.5"/>
<text text-anchor="start" x="61" y="-238.8" font-family="Helvetica,sans-Serif" font-size="14.00">w_data</text>
<text text-anchor="start" x="81" y="-223.8" font-family="Helvetica,sans-Serif" font-size="14.00"> </text>
<text text-anchor="start" x="48" y="-209.8" font-family="Helvetica,sans-Serif" font-size="14.00">🔑</text>
<text text-anchor="start" x="66" y="-209.8" font-family="Helvetica,sans-Serif" font-size="14.00" fill="#c49810">id : int64</text>
<text text-anchor="start" x="43.5" y="-193.8" font-family="Helvetica,sans-Serif" font-size="14.00" fill="#808080">time : double</text>
<text text-anchor="start" x="53.5" y="-178.8" font-family="Helvetica,sans-Serif" font-size="14.00" fill="#808080">x : double</text>
<text text-anchor="start" x="53.5" y="-163.8" font-family="Helvetica,sans-Serif" font-size="14.00" fill="#808080">y : double</text>
<text text-anchor="start" x="53.5" y="-148.8" font-family="Helvetica,sans-Serif" font-size="14.00" fill="#808080">z : double</text>
</g>
<!-- project.contquery.w_calculate -->
<g id="node2" class="node"><title>project.contquery.w_calculate</title>
<polygon fill="#c8f0ff" stroke="#58a0d3" stroke-width="2" points="362,-170 225,-170 225,-56 362,-56 362,-170"/>
<text text-anchor="start" x="258.5" y="-146.8" font-family="Helvetica,sans-Serif" font-size="14.00">w_calculate</text>
<text text-anchor="start" x="292" y="-131.8" font-family="Helvetica,sans-Serif" font-size="14.00"> </text>
<text text-anchor="start" x="259" y="-117.8" font-family="Helvetica,sans-Serif" font-size="14.00">🔑</text>
<text text-anchor="start" x="277" y="-117.8" font-family="Helvetica,sans-Serif" font-size="14.00" fill="#c49810">id : int64</text>
<text text-anchor="start" x="264.5" y="-101.8" font-family="Helvetica,sans-Serif" font-size="14.00" fill="#808080">x : double</text>
<text text-anchor="start" x="243.5" y="-86.8" font-family="Helvetica,sans-Serif" font-size="14.00" fill="#808080">mean_x : double</text>
<text text-anchor="start" x="262.5" y="-71.8" font-family="Helvetica,sans-Serif" font-size="14.00" fill="#808080">n_x : int64</text>
</g>
<!-- project.contquery.w_data&#45;&gt;project.contquery.w_calculate -->
<g id="edge1" class="edge"><title>project.contquery.w_data&#45;&gt;project.contquery.w_calculate</title>
<path fill="none" stroke="black" d="M140.058,-174.998C163.213,-165.581 190.376,-154.534 215.309,-144.393"/>
<polygon fill="black" stroke="black" points="216.798,-147.566 224.743,-140.557 214.161,-141.082 216.798,-147.566"/>
<text text-anchor="middle" x="187" y="-166.8" font-family="Times,serif" font-style="italic" font-size="14.00">data</text>
</g>
<!-- project.contquery.w_request -->
<g id="node3" class="node"><title>project.contquery.w_request</title>
<polygon fill="#c8f0ff" stroke="#58a0d3" stroke-width="2" points="149,-115.5 16,-115.5 16,-16.5 149,-16.5 149,-115.5"/>
<text text-anchor="start" x="51.5" y="-91.8" font-family="Helvetica,sans-Serif" font-size="14.00">w_request</text>
<text text-anchor="start" x="81" y="-76.8" font-family="Helvetica,sans-Serif" font-size="14.00"> </text>
<text text-anchor="start" x="34.5" y="-62.8" font-family="Helvetica,sans-Serif" font-size="14.00">🔑</text>
<text text-anchor="start" x="52.5" y="-62.8" font-family="Helvetica,sans-Serif" font-size="14.00" fill="#c49810">req_id : int64</text>
<text text-anchor="start" x="36.5" y="-46.8" font-family="Helvetica,sans-Serif" font-size="14.00" fill="#808080">req_key : string</text>
<text text-anchor="start" x="38.5" y="-31.8" font-family="Helvetica,sans-Serif" font-size="14.00" fill="#808080">req_val : string</text>
</g>
<!-- project.contquery.w_request&#45;&gt;project.contquery.w_calculate -->
<g id="edge2" class="edge"><title>project.contquery.w_request&#45;&gt;project.contquery.w_calculate</title>
<path fill="none" stroke="black" d="M149.055,-80.7421C169.922,-85.4346 193.206,-90.6707 214.843,-95.5365"/>
<polygon fill="black" stroke="black" points="214.13,-98.9634 224.654,-97.7427 215.665,-92.1339 214.13,-98.9634"/>
<text text-anchor="middle" x="187" y="-96.8" font-family="Times,serif" font-style="italic" font-size="14.00">request</text>
</g>
</g>
</svg>
