<?xml version="1.0" encoding="UTF-8" standalone="no"?>
<!DOCTYPE svg PUBLIC "-//W3C//DTD SVG 1.1//EN"
 "http://www.w3.org/Graphics/SVG/1.1/DTD/svg11.dtd">
<!-- Generated by graphviz version 2.40.1 (20161225.0304)
 -->
<!-- Title: %3 Pages: 1 -->
<svg width="429pt" height="312pt"
 viewBox="0.00 0.00 428.70 312.00" xmlns="http://www.w3.org/2000/svg" xmlns:xlink="http://www.w3.org/1999/xlink">
<g id="graph0" class="graph" transform="scale(1 1) rotate(0) translate(4 308)">
<title>%3</title>
<polygon fill="#ffffff" stroke="transparent" points="-4,4 -4,-308 424.7012,-308 424.7012,4 -4,4"/>
<g id="clust1" class="cluster">
<title>cluster_project</title>
<path fill="#dadada" stroke="#c0c0c0" stroke-width="2" d="M20,-8C20,-8 400.7012,-8 400.7012,-8 406.7012,-8 412.7012,-14 412.7012,-20 412.7012,-20 412.7012,-284 412.7012,-284 412.7012,-290 406.7012,-296 400.7012,-296 400.7012,-296 20,-296 20,-296 14,-296 8,-290 8,-284 8,-284 8,-20 8,-20 8,-14 14,-8 20,-8"/>
<text text-anchor="middle" x="37.0103" y="-280.8" font-family="Helvetica,sans-Serif" font-size="14.00" fill="#000000">project</text>
</g>
<!-- project.contquery.w_data -->
<g id="node1" class="node">
<title>project.contquery.w_data</title>
<polygon fill="#c8f0ff" stroke="#58a0d3" stroke-width="2" points="141.5,-266 25.5,-266 25.5,-136 141.5,-136 141.5,-266"/>
<text text-anchor="start" x="60.9277" y="-242.8" font-family="Helvetica,sans-Serif" font-size="14.00" fill="#000000">w_data</text>
<text text-anchor="start" x="81.5552" y="-228.8" font-family="Helvetica,sans-Serif" font-size="14.00" fill="#000000"> </text>
<text text-anchor="start" x="47.5381" y="-215.8" font-family="Helvetica,sans-Serif" font-size="14.00" fill="#000000">🔑</text>
<text text-anchor="start" x="66.5381" y="-215.8" font-family="Helvetica,sans-Serif" font-size="14.00" fill="#c49810">id : int64</text>
<text text-anchor="start" x="43.4209" y="-192.8" font-family="Helvetica,sans-Serif" font-size="14.00" fill="#808080">time : double</text>
<text text-anchor="start" x="53.145" y="-178.8" font-family="Helvetica,sans-Serif" font-size="14.00" fill="#808080">x : double</text>
<text text-anchor="start" x="53.145" y="-164.8" font-family="Helvetica,sans-Serif" font-size="14.00" fill="#808080">y : double</text>
<text text-anchor="start" x="53.145" y="-150.8" font-family="Helvetica,sans-Serif" font-size="14.00" fill="#808080">z : double</text>
</g>
<!-- project.contquery.w_calculate -->
<g id="node2" class="node">
<title>project.contquery.w_calculate</title>
<polygon fill="#c8f0ff" stroke="#58a0d3" stroke-width="2" points="404.7012,-196 265.7012,-196 265.7012,-80 404.7012,-80 404.7012,-196"/>
<text text-anchor="start" x="299.1255" y="-172.8" font-family="Helvetica,sans-Serif" font-size="14.00" fill="#000000">w_calculate</text>
<text text-anchor="start" x="333.7563" y="-158.8" font-family="Helvetica,sans-Serif" font-size="14.00" fill="#000000"> </text>
<text text-anchor="start" x="299.7393" y="-145.8" font-family="Helvetica,sans-Serif" font-size="14.00" fill="#000000">🔑</text>
<text text-anchor="start" x="318.7393" y="-145.8" font-family="Helvetica,sans-Serif" font-size="14.00" fill="#c49810">id : int64</text>
<text text-anchor="start" x="305.3462" y="-122.8" font-family="Helvetica,sans-Serif" font-size="14.00" fill="#808080">x : double</text>
<text text-anchor="start" x="283.9429" y="-108.8" font-family="Helvetica,sans-Serif" font-size="14.00" fill="#808080">mean_x : double</text>
<text text-anchor="start" x="303.4014" y="-94.8" font-family="Helvetica,sans-Serif" font-size="14.00" fill="#808080">n_x : int64</text>
</g>
<!-- project.contquery.w_data&#45;&gt;project.contquery.w_calculate -->
<g id="edge1" class="edge">
<title>project.contquery.w_data&#45;&gt;project.contquery.w_calculate</title>
<path fill="none" stroke="#000000" d="M141.5614,-186.4674C175.4127,-177.9945 218.5909,-167.1872 255.5807,-157.9288"/>
<polygon fill="#000000" stroke="#000000" points="256.4869,-161.31 265.3378,-155.4866 254.7872,-154.5195 256.4869,-161.31"/>
<text text-anchor="middle" x="208.3506" y="-176.8" font-family="Times,serif" font-style="italic" font-size="14.00" fill="#000000">data</text>
</g>
<!-- project.contquery.w_request -->
<g id="node3" class="node">
<title>project.contquery.w_request</title>
<polygon fill="#c8f0ff" stroke="#58a0d3" stroke-width="2" points="151,-118 16,-118 16,-16 151,-16 151,-118"/>
<text text-anchor="start" x="51.7036" y="-94.8" font-family="Helvetica,sans-Serif" font-size="14.00" fill="#000000">w_request</text>
<text text-anchor="start" x="82.0552" y="-80.8" font-family="Helvetica,sans-Serif" font-size="14.00" fill="#000000"> </text>
<text text-anchor="start" x="34.0278" y="-67.8" font-family="Helvetica,sans-Serif" font-size="14.00" fill="#000000">🔑</text>
<text text-anchor="start" x="53.0278" y="-67.8" font-family="Helvetica,sans-Serif" font-size="14.00" fill="#c49810">req_id : int64</text>
<text text-anchor="start" x="36.145" y="-44.8" font-family="Helvetica,sans-Serif" font-size="14.00" fill="#808080">req_key : string</text>
<text text-anchor="start" x="38.0898" y="-30.8" font-family="Helvetica,sans-Serif" font-size="14.00" fill="#808080">req_val : string</text>
</g>
<!-- project.contquery.w_request&#45;&gt;project.contquery.w_calculate -->
<g id="edge2" class="edge">
<title>project.contquery.w_request&#45;&gt;project.contquery.w_calculate</title>
<path fill="none" stroke="#000000" d="M151.2824,-86.1201C183.4857,-95.204 222.1861,-106.1206 255.7614,-115.5916"/>
<polygon fill="#000000" stroke="#000000" points="254.9686,-119.0045 265.5433,-118.3509 256.8691,-112.2674 254.9686,-119.0045"/>
<text text-anchor="middle" x="208.3506" y="-109.8" font-family="Times,serif" font-style="italic" font-size="14.00" fill="#000000">request</text>
</g>
</g>
</svg>
