<?xml version="1.0" encoding="UTF-8" standalone="no"?>
<!DOCTYPE svg PUBLIC "-//W3C//DTD SVG 1.1//EN"
 "http://www.w3.org/Graphics/SVG/1.1/DTD/svg11.dtd">
<!-- Generated by graphviz version 2.40.1 (20161225.0304)
 -->
<!-- Title: %3 Pages: 1 -->
<svg width="364pt" height="156pt"
 viewBox="0.00 0.00 364.45 156.00" xmlns="http://www.w3.org/2000/svg" xmlns:xlink="http://www.w3.org/1999/xlink">
<g id="graph0" class="graph" transform="scale(1 1) rotate(0) translate(4 152)">
<title>%3</title>
<polygon fill="#ffffff" stroke="transparent" points="-4,4 -4,-152 360.4453,-152 360.4453,4 -4,4"/>
<g id="clust1" class="cluster">
<title>cluster_project</title>
<path fill="#dadada" stroke="#c0c0c0" stroke-width="2" d="M20,-8C20,-8 336.4453,-8 336.4453,-8 342.4453,-8 348.4453,-14 348.4453,-20 348.4453,-20 348.4453,-128 348.4453,-128 348.4453,-134 342.4453,-140 336.4453,-140 336.4453,-140 20,-140 20,-140 14,-140 8,-134 8,-128 8,-128 8,-20 8,-20 8,-14 14,-8 20,-8"/>
<text text-anchor="middle" x="37.0103" y="-124.8" font-family="Helvetica,sans-Serif" font-size="14.00" fill="#000000">project</text>
</g>
<!-- project.contquery.w_data -->
<g id="node1" class="node">
<title>project.contquery.w_data</title>
<polygon fill="#c8f0ff" stroke="#58a0d3" stroke-width="2" points="106.941,-110 25.6517,-110 25.6517,-72 106.941,-72 106.941,-110"/>
<text text-anchor="middle" x="66.2964" y="-86.8" font-family="Helvetica,sans-Serif" font-size="14.00" fill="#000000">w_data</text>
</g>
<!-- project.contquery.w_calculate -->
<g id="node2" class="node">
<title>project.contquery.w_calculate</title>
<polygon fill="#c8f0ff" stroke="#58a0d3" stroke-width="2" points="340.5211,-82 231.2182,-82 231.2182,-44 340.5211,-44 340.5211,-82"/>
<text text-anchor="middle" x="285.8696" y="-58.8" font-family="Helvetica,sans-Serif" font-size="14.00" fill="#000000">w_calculate</text>
</g>
<!-- project.contquery.w_data&#45;&gt;project.contquery.w_calculate -->
<g id="edge1" class="edge">
<title>project.contquery.w_data&#45;&gt;project.contquery.w_calculate</title>
<path fill="none" stroke="#000000" d="M107.0818,-85.799C139.0503,-81.7224 184.1454,-75.9719 221.0473,-71.2662"/>
<polygon fill="#000000" stroke="#000000" points="221.7436,-74.7058 231.2205,-69.9689 220.8581,-67.762 221.7436,-74.7058"/>
<text text-anchor="middle" x="173.9434" y="-81.8" font-family="Times,serif" font-style="italic" font-size="14.00" fill="#000000">data</text>
</g>
<!-- project.contquery.w_request -->
<g id="node3" class="node">
<title>project.contquery.w_request</title>
<polygon fill="#c8f0ff" stroke="#58a0d3" stroke-width="2" points="116.39,-54 16.2028,-54 16.2028,-16 116.39,-16 116.39,-54"/>
<text text-anchor="middle" x="66.2964" y="-30.8" font-family="Helvetica,sans-Serif" font-size="14.00" fill="#000000">w_request</text>
</g>
<!-- project.contquery.w_request&#45;&gt;project.contquery.w_calculate -->
<g id="edge2" class="edge">
<title>project.contquery.w_request&#45;&gt;project.contquery.w_calculate</title>
<path fill="none" stroke="#000000" d="M116.3957,-41.3887C147.3663,-45.338 187.4416,-50.4484 220.8458,-54.7082"/>
<polygon fill="#000000" stroke="#000000" points="220.6185,-58.2074 230.9809,-56.0006 221.504,-51.2637 220.6185,-58.2074"/>
<text text-anchor="middle" x="173.9434" y="-53.8" font-family="Times,serif" font-style="italic" font-size="14.00" fill="#000000">request</text>
</g>
</g>
</svg>
