<?xml version="1.0" encoding="UTF-8" standalone="no"?>
<!DOCTYPE svg PUBLIC "-//W3C//DTD SVG 1.1//EN"
 "http://www.w3.org/Graphics/SVG/1.1/DTD/svg11.dtd">
<!-- Generated by graphviz version 2.38.0 (20140413.2041)
 -->
<!-- Title: %3 Pages: 1 -->
<svg width="322pt" height="160pt"
 viewBox="0.00 0.00 322.00 160.00" xmlns="http://www.w3.org/2000/svg" xmlns:xlink="http://www.w3.org/1999/xlink">
<g id="graph0" class="graph" transform="scale(1 1) rotate(0) translate(4 156)">
<title>%3</title>
<polygon fill="white" stroke="none" points="-4,4 -4,-156 318,-156 318,4 -4,4"/>
<g id="clust1" class="cluster"><title>cluster_project</title>
<path fill="#dadada" stroke="#c0c0c0" stroke-width="2" d="M20,-8C20,-8 294,-8 294,-8 300,-8 306,-14 306,-20 306,-20 306,-132 306,-132 306,-138 300,-144 294,-144 294,-144 20,-144 20,-144 14,-144 8,-138 8,-132 8,-132 8,-20 8,-20 8,-14 14,-8 20,-8"/>
<text text-anchor="middle" x="36.5" y="-128.8" font-family="Helvetica,sans-Serif" font-size="14.00">project</text>
</g>
<!-- project.contquery.w_data -->
<g id="node1" class="node"><title>project.contquery.w_data</title>
<polygon fill="#c8f0ff" stroke="#58a0d3" stroke-width="2" points="105.5,-112.5 25.5,-112.5 25.5,-73.5 105.5,-73.5 105.5,-112.5"/>
<text text-anchor="middle" x="65.5" y="-89.3" font-family="Helvetica,sans-Serif" font-size="14.00">w_data</text>
</g>
<!-- project.contquery.w_calculate -->
<g id="node2" class="node"><title>project.contquery.w_calculate</title>
<polygon fill="#c8f0ff" stroke="#58a0d3" stroke-width="2" points="298,-79.5 191,-79.5 191,-40.5 298,-40.5 298,-79.5"/>
<text text-anchor="middle" x="244.5" y="-56.3" font-family="Helvetica,sans-Serif" font-size="14.00">w_calculate</text>
</g>
<!-- project.contquery.w_data&#45;&gt;project.contquery.w_calculate -->
<g id="edge1" class="edge"><title>project.contquery.w_data&#45;&gt;project.contquery.w_calculate</title>
<path fill="none" stroke="black" d="M105.782,-85.6762C127.802,-81.5707 155.784,-76.3539 180.765,-71.6964"/>
<polygon fill="black" stroke="black" points="181.707,-75.0812 190.896,-69.8076 180.424,-68.1997 181.707,-75.0812"/>
<text text-anchor="middle" x="153" y="-83.8" font-family="Times,serif" font-style="italic" font-size="14.00">data</text>
</g>
<!-- project.contquery.w_request -->
<g id="node3" class="node"><title>project.contquery.w_request</title>
<polygon fill="#c8f0ff" stroke="#58a0d3" stroke-width="2" points="115,-55.5 16,-55.5 16,-16.5 115,-16.5 115,-55.5"/>
<text text-anchor="middle" x="65.5" y="-32.3" font-family="Helvetica,sans-Serif" font-size="14.00">w_request</text>
</g>
<!-- project.contquery.w_request&#45;&gt;project.contquery.w_calculate -->
<g id="edge2" class="edge"><title>project.contquery.w_request&#45;&gt;project.contquery.w_calculate</title>
<path fill="none" stroke="black" d="M115.335,-42.6216C135.564,-45.3646 159.279,-48.5802 180.772,-51.4945"/>
<polygon fill="black" stroke="black" points="180.414,-54.978 190.794,-52.8534 181.355,-48.0414 180.414,-54.978"/>
<text text-anchor="middle" x="153" y="-54.8" font-family="Times,serif" font-style="italic" font-size="14.00">request</text>
</g>
</g>
</svg>
