<?xml version="1.0" encoding="UTF-8" standalone="no"?>
<!DOCTYPE svg PUBLIC "-//W3C//DTD SVG 1.1//EN"
 "http://www.w3.org/Graphics/SVG/1.1/DTD/svg11.dtd">
<!-- Generated by graphviz version 2.38.0 (20140413.2041)
 -->
<!-- Title: %3 Pages: 1 -->
<svg width="352pt" height="160pt"
 viewBox="0.00 0.00 352.00 160.00" xmlns="http://www.w3.org/2000/svg" xmlns:xlink="http://www.w3.org/1999/xlink">
<g id="graph0" class="graph" transform="scale(1 1) rotate(0) translate(4 156)">
<title>%3</title>
<polygon fill="white" stroke="none" points="-4,4 -4,-156 348,-156 348,4 -4,4"/>
<g id="clust1" class="cluster"><title>cluster_project</title>
<path fill="#dadada" stroke="#c0c0c0" stroke-width="2" d="M20,-8C20,-8 324,-8 324,-8 330,-8 336,-14 336,-20 336,-20 336,-132 336,-132 336,-138 330,-144 324,-144 324,-144 20,-144 20,-144 14,-144 8,-138 8,-132 8,-132 8,-20 8,-20 8,-14 14,-8 20,-8"/>
<text text-anchor="middle" x="42.5" y="-128.8" font-family="Helvetica,sans-Serif" font-size="14.00">project</text>
</g>
<!-- project.contquery.w_data -->
<g id="node1" class="node"><title>project.contquery.w_data</title>
<polygon fill="#c8f0ff" stroke="#58a0d3" stroke-width="2" points="109,-112.5 27,-112.5 27,-73.5 109,-73.5 109,-112.5"/>
<text text-anchor="middle" x="68" y="-89.3" font-family="Helvetica,sans-Serif" font-size="14.00">w_data</text>
</g>
<!-- project.contquery.w_calculate -->
<g id="node2" class="node"><title>project.contquery.w_calculate</title>
<polygon fill="#c8f0ff" stroke="#58a0d3" stroke-width="2" points="328,-79.5 209,-79.5 209,-40.5 328,-40.5 328,-79.5"/>
<text text-anchor="middle" x="268.5" y="-56.3" font-family="Helvetica,sans-Serif" font-size="14.00">w_calculate</text>
</g>
<!-- project.contquery.w_data&#45;&gt;project.contquery.w_calculate -->
<g id="edge1" class="edge"><title>project.contquery.w_data&#45;&gt;project.contquery.w_calculate</title>
<path fill="none" stroke="black" d="M109.169,-86.322C134.92,-82.041 169.012,-76.3732 198.965,-71.3937"/>
<polygon fill="black" stroke="black" points="199.655,-74.8271 208.946,-69.7344 198.507,-67.9219 199.655,-74.8271"/>
<text text-anchor="middle" x="164.5" y="-84.8" font-family="Times,serif" font-style="italic" font-size="14.00">data</text>
</g>
<!-- project.contquery.w_request -->
<g id="node3" class="node"><title>project.contquery.w_request</title>
<polygon fill="#c8f0ff" stroke="#58a0d3" stroke-width="2" points="120,-55.5 16,-55.5 16,-16.5 120,-16.5 120,-55.5"/>
<text text-anchor="middle" x="68" y="-32.3" font-family="Helvetica,sans-Serif" font-size="14.00">w_request</text>
</g>
<!-- project.contquery.w_request&#45;&gt;project.contquery.w_calculate -->
<g id="edge2" class="edge"><title>project.contquery.w_request&#45;&gt;project.contquery.w_calculate</title>
<path fill="none" stroke="black" d="M120.119,-42.1806C144.051,-45.0742 172.911,-48.5635 198.724,-51.6846"/>
<polygon fill="black" stroke="black" points="198.477,-55.18 208.825,-52.9057 199.317,-48.2306 198.477,-55.18"/>
<text text-anchor="middle" x="164.5" y="-54.8" font-family="Times,serif" font-style="italic" font-size="14.00">request</text>
</g>
</g>
</svg>
